<svg xmlns="http://www.w3.org/2000/svg" xmlns:xlink="http://www.w3.org/1999/xlink" width="500" zoomAndPan="magnify" viewBox="0 0 375 374.999991" height="500" preserveAspectRatio="xMidYMid meet" version="1.0"><defs><g/></defs><g fill="#ffffff" fill-opacity="1"><g transform="translate(149.7781, 272.217462)"><g><path d="M 147.203125 0 L 147.203125 -122.203125 L 91.40625 -26.59375 L 84.59375 -26.59375 L 28.796875 -122.203125 L 28.796875 0 L 18.59375 0 L 18.59375 -142 L 28.796875 -142 L 88 -40.40625 L 147.203125 -142 L 157.40625 -142 L 157.40625 0 Z M 147.203125 0 "/></g></g></g><g fill="#ffffff" fill-opacity="1"><g transform="translate(9.184605, 249.6427)"><g><path d="M 84.4375 1.125 C 73.6875 1.125 63.753906 -1.1875 54.640625 -5.8125 C 45.535156 -10.445312 37.625 -16.609375 30.90625 -24.296875 C 24.1875 -31.992188 19 -40.65625 15.34375 -50.28125 C 11.6875 -59.914062 9.859375 -69.734375 9.859375 -79.734375 C 9.859375 -90.191406 11.648438 -100.234375 15.234375 -109.859375 C 18.816406 -119.492188 23.890625 -128.082031 30.453125 -135.625 C 37.023438 -143.164062 44.789062 -149.140625 53.75 -153.546875 C 62.71875 -157.953125 72.5 -160.15625 83.09375 -160.15625 C 98.925781 -160.15625 111.734375 -156.90625 121.515625 -150.40625 C 131.296875 -143.90625 138.722656 -135.582031 143.796875 -125.4375 L 134.390625 -119.828125 C 129.015625 -130.285156 121.882812 -137.863281 113 -142.5625 C 104.113281 -147.269531 94.070312 -149.625 82.875 -149.625 C 73.46875 -149.625 64.957031 -147.644531 57.34375 -143.6875 C 49.726562 -139.726562 43.234375 -134.425781 37.859375 -127.78125 C 32.484375 -121.132812 28.375 -113.628906 25.53125 -105.265625 C 22.695312 -96.910156 21.28125 -88.328125 21.28125 -79.515625 C 21.28125 -70.109375 22.921875 -61.222656 26.203125 -52.859375 C 29.492188 -44.492188 34.050781 -37.023438 39.875 -30.453125 C 45.695312 -23.890625 52.488281 -18.738281 60.25 -15 C 68.019531 -11.269531 76.304688 -9.40625 85.109375 -9.40625 C 95.410156 -9.40625 105.113281 -11.90625 114.21875 -16.90625 C 123.332031 -21.914062 132.070312 -29.796875 140.4375 -40.546875 L 140.4375 -27.78125 C 124.613281 -8.507812 105.945312 1.125 84.4375 1.125 Z M 137.96875 -68.09375 L 101.90625 -68.09375 L 101.90625 -77.28125 L 147.828125 -77.28125 L 147.828125 0 L 137.96875 0 Z M 137.96875 -68.09375 "/></g></g></g><g fill="#c8bbbb" fill-opacity="1"><g transform="translate(14.478591, 240.092099)"><g><path d="M 84.4375 1.125 C 73.6875 1.125 63.753906 -1.1875 54.640625 -5.8125 C 45.535156 -10.445312 37.625 -16.609375 30.90625 -24.296875 C 24.1875 -31.992188 19 -40.65625 15.34375 -50.28125 C 11.6875 -59.914062 9.859375 -69.734375 9.859375 -79.734375 C 9.859375 -90.191406 11.648438 -100.234375 15.234375 -109.859375 C 18.816406 -119.492188 23.890625 -128.082031 30.453125 -135.625 C 37.023438 -143.164062 44.789062 -149.140625 53.75 -153.546875 C 62.71875 -157.953125 72.5 -160.15625 83.09375 -160.15625 C 98.925781 -160.15625 111.734375 -156.90625 121.515625 -150.40625 C 131.296875 -143.90625 138.722656 -135.582031 143.796875 -125.4375 L 134.390625 -119.828125 C 129.015625 -130.285156 121.882812 -137.863281 113 -142.5625 C 104.113281 -147.269531 94.070312 -149.625 82.875 -149.625 C 73.46875 -149.625 64.957031 -147.644531 57.34375 -143.6875 C 49.726562 -139.726562 43.234375 -134.425781 37.859375 -127.78125 C 32.484375 -121.132812 28.375 -113.628906 25.53125 -105.265625 C 22.695312 -96.910156 21.28125 -88.328125 21.28125 -79.515625 C 21.28125 -70.109375 22.921875 -61.222656 26.203125 -52.859375 C 29.492188 -44.492188 34.050781 -37.023438 39.875 -30.453125 C 45.695312 -23.890625 52.488281 -18.738281 60.25 -15 C 68.019531 -11.269531 76.304688 -9.40625 85.109375 -9.40625 C 95.410156 -9.40625 105.113281 -11.90625 114.21875 -16.90625 C 123.332031 -21.914062 132.070312 -29.796875 140.4375 -40.546875 L 140.4375 -27.78125 C 124.613281 -8.507812 105.945312 1.125 84.4375 1.125 Z M 137.96875 -68.09375 L 101.90625 -68.09375 L 101.90625 -77.28125 L 147.828125 -77.28125 L 147.828125 0 L 137.96875 0 Z M 137.96875 -68.09375 "/></g></g></g></svg>